<?xml version="1.0" encoding="utf-8"?>
<!-- Generator: Adobe Illustrator 24.1.1, SVG Export Plug-In . SVG Version: 6.00 Build 0)  -->
<svg version="1.1"
	 id="svg2" inkscape:version="0.91 r13725" sodipodi:docname="inkscape_template.svg" xmlns:cc="http://creativecommons.org/ns#" xmlns:dc="http://purl.org/dc/elements/1.1/" xmlns:inkscape="http://www.inkscape.org/namespaces/inkscape" xmlns:rdf="http://www.w3.org/1999/02/22-rdf-syntax-ns#" xmlns:sodipodi="http://sodipodi.sourceforge.net/DTD/sodipodi-0.dtd" xmlns:svg="http://www.w3.org/2000/svg"
	 xmlns="http://www.w3.org/2000/svg" xmlns:xlink="http://www.w3.org/1999/xlink" x="0px" y="0px" viewBox="0 0 155.7 182.5"
	 style="enable-background:new 0 0 155.7 182.5;" xml:space="preserve">
<style type="text/css">
	.st0{fill:#848484;stroke:#848484;stroke-width:5.2034;stroke-linejoin:round;stroke-miterlimit:10;}
	.st1{fill:#F9F9F9;}
	.st2{fill:none;}
	.st3{enable-background:new    ;}
	.st4{fill:#848484;}
	.st5{fill:#79B6E3;}
	.st6{fill:#FFCB67;}
	.st7{fill:#F27067;}
	.st8{fill:#7BAE41;}
	.st9{fill:none;stroke:#848484;stroke-width:5.2034;stroke-linejoin:round;stroke-miterlimit:10;}
	.st10{fill:#353535;}
</style>
<sodipodi:namedview  bordercolor="#666666" borderopacity="1" gridtolerance="10" guidetolerance="10" id="namedview4" inkscape:current-layer="g10" inkscape:cx="50.566365" inkscape:cy="75.545513" inkscape:pageopacity="0" inkscape:pageshadow="2" inkscape:window-height="858" inkscape:window-maximized="0" inkscape:window-width="1291" inkscape:window-x="222" inkscape:window-y="48" inkscape:zoom="2.5863014" objecttolerance="10" pagecolor="#ffffff" showgrid="false">
	</sodipodi:namedview>
<g>
	<polygon class="st0" points="152.8,134.6 152.8,47.9 77.8,4.6 2.7,47.9 2.7,134.6 77.8,177.9 	"/>
	<path class="st1" d="M151,127V55.5c0-4-2.1-7.7-5.6-9.8L83.4,10.1c-3.5-2-7.8-2-11.2,0L10.1,45.8c-3.5,2-5.6,5.7-5.6,9.8v71.5
		c0,4,2.1,7.7,5.6,9.8L72,172.7c3.5,2,7.8,2,11.2,0l62.2-35.9C148.8,134.8,151,131,151,127z"/>
	<rect x="21.8" y="30.4" class="st2" width="72.2" height="76.6"/>
	<g class="st3">
		<path class="st4" d="M43.9,103.2c-3.9,0-6.9-1.1-9-3.3c-2.1-2.2-3.1-5.3-3.1-9.4V60.2h-6c-0.5,0-1-0.2-1.3-0.5
			c-0.4-0.3-0.5-0.8-0.5-1.4v-3.5l8.1-1l2-15.3c0.1-0.5,0.3-0.9,0.7-1.2c0.3-0.3,0.8-0.5,1.3-0.5h4.4v17h23.3l2-15.4
			c0.1-0.5,0.3-0.9,0.7-1.2c0.3-0.3,0.8-0.5,1.3-0.5h4.4v17h14.3v6.3H72.1v29.7c0,2.1,0.5,3.6,1.5,4.6s2.3,1.5,3.9,1.5
			c0.9,0,1.7-0.1,2.4-0.4c0.7-0.2,1.2-0.5,1.7-0.8c0.5-0.3,0.9-0.6,1.2-0.8c0.3-0.2,0.6-0.4,0.9-0.4c0.5,0,0.9,0.3,1.2,0.8l2.6,4.1
			c-1.5,1.4-3.4,2.5-5.5,3.3c-2.1,0.8-4.3,1.2-6.5,1.2c-3.9,0-6.9-1.1-9-3.3c-2.1-2.2-3.2-5.3-3.2-9.4V60.2h-23v29.7
			c0,2.1,0.5,3.6,1.5,4.6c1,1,2.3,1.5,3.9,1.5c0.9,0,1.7-0.1,2.4-0.4c0.7-0.2,1.2-0.5,1.7-0.8c0.5-0.3,0.9-0.6,1.2-0.8
			c0.3-0.2,0.6-0.4,0.9-0.4c0.5,0,0.9,0.3,1.2,0.8l2.5,4.1c-1.5,1.4-3.3,2.5-5.4,3.3C48.3,102.8,46.1,103.2,43.9,103.2z"/>
	</g>
	<g>
		<g>
			
				<rect x="121.5" y="92.1" transform="matrix(0.4639 -0.8859 0.8859 0.4639 -21.7439 166.1433)" class="st5" width="9.8" height="17.8"/>
			<circle class="st5" cx="134" cy="105" r="4.8"/>
		</g>
		<g>
			
				<rect x="128.1" y="73.6" transform="matrix(0.2991 -0.9542 0.9542 0.2991 14.4655 184.7497)" class="st5" width="9.8" height="17.8"/>
			<circle class="st5" cx="141.3" cy="85" r="4.8"/>
		</g>
		<g>
			
				<rect x="110.9" y="105.5" transform="matrix(0.6287 -0.7776 0.7776 0.6287 -47.7018 133.3713)" class="st6" width="9.8" height="22.2"/>
			<circle class="st1" cx="124.5" cy="123.6" r="4.8"/>
		</g>
		<g>
			
				<rect x="96.9" y="118.7" transform="matrix(0.7432 -0.6691 0.6691 0.7432 -59.5605 100.9607)" class="st7" width="9.8" height="18.7"/>
			<polygon class="st7" points="113.7,141.3 111.7,131.8 104.4,138.3 			"/>
		</g>
		<g>
			
				<rect x="63.6" y="136" transform="matrix(0.9586 -0.2848 0.2848 0.9586 -38.5638 25.5194)" class="st7" width="9.8" height="18.7"/>
			<polygon class="st7" points="73.6,162.3 75.8,152.9 66.6,155.6 			"/>
		</g>
		<g>
			
				<rect x="81.9" y="130" transform="matrix(0.8729 -0.488 0.488 0.8729 -58.3331 60.4281)" class="st8" width="9.8" height="24.3"/>
			<polygon class="st1" points="88.6,145.3 88.4,155.2 97,150.4 			"/>
		</g>
		<path class="st9" d="M125.9,67.4c-5.9,41.5-41.5,73.2-84.6,73.2"/>
		<g>
			<path class="st4" d="M134,66.5c-1,1.3-2.6,2.1-4,2.5c-1.6,0.4-3.1,0.4-4.7,0.1c-1.6-0.4-3-1-4.3-2s-2.3-2.2-2.7-3.9l0.1-0.3
				c2.2,1.7,4.7,3,7.4,3.5c2.7,0.7,5.5,0.5,8.2-0.3V66.5z"/>
		</g>
	</g>
	<g class="st3">
		<path class="st10" d="M79.6,15.8l1.9-3.3l-1.2-0.7l0.3-0.4l3,1.7l-0.3,0.4L82,12.8l-1.9,3.3L79.6,15.8z"/>
		<path class="st10" d="M81.6,17l1.6-2.7l0.5,0.3L82,17.3L81.6,17z M83.5,13.7l0.3-0.5l0.5,0.3L83.9,14L83.5,13.7z"/>
		<path class="st10" d="M84.5,18.7l0.2-0.3c-0.3,0.2-0.7,0.2-1,0c-0.2-0.1-0.4-0.3-0.5-0.5c-0.1-0.2-0.2-0.5-0.1-0.8
			s0.1-0.6,0.3-0.8c0.2-0.3,0.3-0.5,0.6-0.7c0.2-0.2,0.5-0.3,0.7-0.3c0.3,0,0.5,0,0.7,0.2c0.2,0.1,0.3,0.2,0.4,0.4
			c0.1,0.1,0.1,0.3,0.2,0.5l0.8-1.4l0.5,0.3L85,18.9L84.5,18.7z M83.9,16.5c-0.2,0.4-0.3,0.7-0.2,0.9c0,0.3,0.2,0.4,0.4,0.6
			c0.2,0.1,0.4,0.1,0.7,0.1c0.2-0.1,0.5-0.3,0.7-0.6c0.2-0.4,0.3-0.7,0.3-1s-0.2-0.5-0.4-0.6c-0.2-0.1-0.4-0.1-0.7,0
			C84.3,15.9,84.1,16.1,83.9,16.5z"/>
		<path class="st10" d="M85.1,20.4l0.2-0.5c0.1,0.1,0.2,0.2,0.2,0.2c0.1,0.1,0.2,0.1,0.3,0.1c0.1,0,0.2,0,0.2-0.1
			c0.1,0,0.2-0.1,0.3-0.3c0,0,0.1-0.1,0.1-0.1l0.5-3.3l0.5,0.3l-0.3,1.9c0,0.2-0.1,0.5-0.2,0.8c0.2-0.2,0.4-0.4,0.6-0.5l1.5-1.3
			l0.5,0.3l-2.7,2.2c-0.3,0.2-0.5,0.4-0.6,0.5c-0.2,0.1-0.3,0.2-0.5,0.2c-0.1,0-0.3,0-0.4-0.1C85.2,20.6,85.1,20.5,85.1,20.4z"/>
		<path class="st10" d="M90.7,22.3l1.9-3.3l-1.2-0.7l0.3-0.4l3,1.7L94.4,20l-1.3-0.7l-1.9,3.3L90.7,22.3z"/>
		<path class="st10" d="M92.7,23.4l1.6-2.7l0.4,0.2l-0.2,0.4c0.2-0.1,0.4-0.2,0.5-0.2c0.1,0,0.2,0,0.4,0.1c0.2,0.1,0.3,0.2,0.4,0.4
			L95.3,22c-0.1-0.1-0.2-0.2-0.3-0.3c-0.1-0.1-0.2-0.1-0.3-0.1c-0.1,0-0.2,0.1-0.3,0.2c-0.1,0.1-0.3,0.3-0.4,0.5l-0.8,1.4L92.7,23.4
			z"/>
		<path class="st10" d="M96.5,25.2c-0.3,0-0.5,0.1-0.7,0c-0.2,0-0.4-0.1-0.6-0.2c-0.3-0.2-0.5-0.4-0.6-0.6c-0.1-0.2,0-0.5,0.1-0.7
			c0.1-0.1,0.2-0.2,0.3-0.3c0.1-0.1,0.3-0.1,0.4-0.1c0.1,0,0.3,0,0.4,0c0.1,0,0.3,0.1,0.5,0.2c0.4,0.2,0.7,0.3,0.9,0.3
			c0-0.1,0.1-0.1,0.1-0.1c0.1-0.2,0.1-0.3,0.1-0.5c-0.1-0.2-0.2-0.3-0.4-0.5c-0.2-0.1-0.4-0.2-0.6-0.2c-0.1,0-0.3,0.1-0.5,0.3
			l-0.4-0.3c0.2-0.2,0.3-0.3,0.5-0.4c0.2-0.1,0.4-0.1,0.6,0s0.4,0.1,0.7,0.3c0.2,0.1,0.4,0.3,0.5,0.4c0.1,0.1,0.2,0.3,0.2,0.4
			s0,0.3,0,0.4c0,0.1-0.1,0.2-0.2,0.4l-0.4,0.6c-0.3,0.4-0.4,0.7-0.4,0.8c0,0.1-0.1,0.3-0.1,0.4l-0.5-0.3
			C96.4,25.4,96.4,25.3,96.5,25.2z M97,24.1c-0.2,0-0.5-0.1-0.9-0.3c-0.2-0.1-0.4-0.1-0.5-0.1c-0.1,0-0.2,0-0.3,0
			c-0.1,0-0.1,0.1-0.2,0.2c-0.1,0.1-0.1,0.3,0,0.4c0,0.1,0.2,0.3,0.3,0.4c0.2,0.1,0.4,0.2,0.5,0.2c0.2,0,0.3,0,0.5-0.1
			c0.1-0.1,0.2-0.2,0.3-0.4L97,24.1z"/>
		<path class="st10" d="M97.4,26.2l1.6-2.7l0.4,0.2l-0.2,0.4c0.4-0.2,0.8-0.2,1.1,0.1c0.2,0.1,0.3,0.2,0.4,0.4
			c0.1,0.1,0.2,0.3,0.2,0.4c0,0.1,0,0.3-0.1,0.4c0,0.1-0.1,0.3-0.2,0.5l-1,1.7l-0.5-0.3l1-1.7c0.1-0.2,0.2-0.3,0.2-0.5
			c0-0.1,0-0.2-0.1-0.3s-0.2-0.2-0.3-0.3c-0.2-0.1-0.4-0.2-0.6-0.1c-0.2,0-0.4,0.2-0.6,0.6l-0.9,1.5L97.4,26.2z"/>
		<path class="st10" d="M100.7,26.9l0.5,0.2c-0.1,0.2-0.1,0.4,0,0.5c0.1,0.2,0.2,0.3,0.4,0.4s0.4,0.2,0.5,0.1c0.2,0,0.3-0.1,0.3-0.2
			c0.1-0.1,0.1-0.2,0-0.3c0-0.1-0.2-0.2-0.4-0.4c-0.3-0.3-0.5-0.5-0.6-0.6s-0.1-0.3-0.1-0.4c0-0.2,0-0.3,0.1-0.4
			c0.1-0.1,0.2-0.2,0.3-0.3c0.1-0.1,0.2-0.1,0.4-0.1c0.1,0,0.2,0,0.4,0c0.1,0,0.3,0.1,0.4,0.2c0.2,0.1,0.4,0.3,0.5,0.4
			c0.1,0.2,0.2,0.3,0.2,0.5c0,0.2,0,0.3-0.1,0.5l-0.5-0.2c0.1-0.2,0.1-0.3,0-0.4c-0.1-0.1-0.2-0.3-0.4-0.4c-0.2-0.1-0.4-0.2-0.5-0.2
			c-0.1,0-0.2,0.1-0.3,0.2c0,0.1,0,0.1,0,0.2c0,0.1,0,0.1,0.1,0.2c0,0,0.1,0.2,0.3,0.4c0.3,0.3,0.5,0.5,0.6,0.6
			c0.1,0.1,0.2,0.3,0.2,0.4c0,0.1,0,0.3-0.1,0.5c-0.1,0.2-0.2,0.3-0.4,0.4c-0.2,0.1-0.4,0.1-0.6,0.1c-0.2,0-0.4-0.1-0.6-0.2
			c-0.4-0.2-0.6-0.4-0.7-0.7C100.5,27.6,100.5,27.3,100.7,26.9z"/>
		<path class="st10" d="M105.4,29.4l0.4,0.3c-0.2,0.3-0.5,0.5-0.8,0.5c-0.3,0.1-0.6,0-0.9-0.2c-0.4-0.2-0.6-0.5-0.7-0.9
			c-0.1-0.4,0-0.8,0.3-1.3c0.2-0.3,0.4-0.5,0.6-0.7c0.2-0.2,0.5-0.2,0.7-0.2c0.3,0,0.5,0.1,0.8,0.2c0.3,0.2,0.5,0.4,0.6,0.6
			c0.1,0.3,0.1,0.5,0,0.9l-0.5-0.2c0.1-0.2,0.1-0.4,0-0.5c-0.1-0.2-0.2-0.3-0.3-0.4c-0.2-0.1-0.5-0.2-0.7-0.1
			c-0.2,0.1-0.5,0.3-0.7,0.7c-0.2,0.4-0.3,0.7-0.3,0.9s0.2,0.4,0.4,0.6c0.2,0.1,0.4,0.1,0.6,0.1C105,29.8,105.2,29.6,105.4,29.4z"/>
		<path class="st10" d="M105.7,30.9l1.6-2.7l0.4,0.2l-0.2,0.4c0.2-0.1,0.4-0.2,0.5-0.2c0.1,0,0.2,0,0.4,0.1c0.2,0.1,0.3,0.2,0.4,0.4
			l-0.4,0.3c-0.1-0.1-0.2-0.2-0.3-0.3c-0.1-0.1-0.2-0.1-0.3-0.1c-0.1,0-0.2,0.1-0.3,0.2c-0.1,0.1-0.3,0.3-0.4,0.5l-0.8,1.4
			L105.7,30.9z"/>
		<path class="st10" d="M107.4,31.9l1.6-2.7l0.5,0.3l-1.6,2.7L107.4,31.9z M109.3,28.7l0.3-0.5l0.5,0.3l-0.3,0.5L109.3,28.7z"/>
		<path class="st10" d="M108,33.7l2.2-3.8l0.4,0.2l-0.2,0.4c0.2-0.1,0.4-0.1,0.5-0.1c0.2,0,0.3,0.1,0.5,0.2c0.2,0.1,0.4,0.3,0.5,0.5
			c0.1,0.2,0.1,0.5,0.1,0.7c0,0.3-0.1,0.5-0.3,0.8c-0.2,0.3-0.4,0.5-0.6,0.7s-0.5,0.3-0.7,0.3c-0.3,0-0.5,0-0.7-0.2
			c-0.2-0.1-0.3-0.2-0.4-0.3c-0.1-0.1-0.1-0.3-0.2-0.4l-0.8,1.3L108,33.7z M109.8,31.5c-0.2,0.4-0.3,0.7-0.2,0.9
			c0,0.3,0.2,0.4,0.4,0.6c0.2,0.1,0.4,0.1,0.7,0s0.5-0.3,0.7-0.7c0.2-0.3,0.3-0.7,0.2-0.9c0-0.3-0.2-0.4-0.4-0.6
			c-0.2-0.1-0.4-0.1-0.7,0S110,31.2,109.8,31.5z"/>
		<path class="st10" d="M112.8,34.5l-0.2,0.4c-0.1,0-0.3-0.1-0.4-0.2c-0.2-0.1-0.3-0.2-0.3-0.3c-0.1-0.1-0.1-0.2-0.1-0.3
			c0-0.1,0.1-0.3,0.3-0.6L113,32l-0.3-0.2l0.2-0.4l0.3,0.2l0.4-0.7l0.6,0l-0.6,1l0.5,0.3l-0.2,0.4l-0.5-0.3l-0.9,1.6
			c-0.1,0.1-0.1,0.2-0.1,0.3s0,0.1,0,0.1c0,0,0.1,0.1,0.1,0.1C112.6,34.4,112.7,34.5,112.8,34.5z"/>
		<path class="st10" d="M113.6,33.7c0.3-0.5,0.7-0.8,1.1-0.9c0.4-0.1,0.7,0,1,0.2c0.4,0.2,0.6,0.5,0.7,0.9c0.1,0.4,0,0.8-0.2,1.2
			c-0.2,0.4-0.4,0.6-0.6,0.7c-0.2,0.1-0.5,0.2-0.7,0.2c-0.3,0-0.5-0.1-0.8-0.2c-0.4-0.2-0.6-0.5-0.7-0.9
			C113.3,34.6,113.4,34.2,113.6,33.7z M114.1,34c-0.2,0.4-0.3,0.7-0.2,0.9c0.1,0.3,0.2,0.5,0.4,0.6c0.2,0.1,0.5,0.2,0.7,0.1
			c0.3-0.1,0.5-0.3,0.7-0.7c0.2-0.3,0.3-0.6,0.2-0.9c-0.1-0.3-0.2-0.5-0.4-0.6c-0.2-0.1-0.5-0.2-0.7-0.1S114.3,33.6,114.1,34z"/>
		<path class="st10" d="M115.9,36.9l1.6-2.7l0.4,0.2l-0.2,0.4c0.2-0.1,0.3-0.1,0.5-0.1c0.2,0,0.4,0.1,0.6,0.2
			c0.2,0.1,0.3,0.3,0.4,0.4c0.1,0.2,0.1,0.3,0.1,0.5c0.4-0.2,0.8-0.2,1.1,0c0.3,0.2,0.4,0.4,0.5,0.6s0,0.5-0.2,0.8l-1.1,1.9
			l-0.5-0.3l1-1.7c0.1-0.2,0.2-0.3,0.2-0.4c0-0.1,0-0.2,0-0.3c-0.1-0.1-0.1-0.2-0.2-0.2c-0.2-0.1-0.4-0.1-0.6-0.1
			c-0.2,0.1-0.4,0.2-0.5,0.5l-0.9,1.6l-0.5-0.3l1-1.8c0.1-0.2,0.2-0.4,0.2-0.5c0-0.1-0.1-0.3-0.3-0.4c-0.1-0.1-0.3-0.1-0.4-0.1
			s-0.3,0.1-0.4,0.2c-0.1,0.1-0.3,0.3-0.4,0.5l-0.8,1.4L115.9,36.9z"/>
		<path class="st10" d="M120.3,39.4l1.6-2.7l0.5,0.3l-1.6,2.7L120.3,39.4z M122.2,36.2l0.3-0.5l0.5,0.3l-0.3,0.5L122.2,36.2z"/>
		<path class="st10" d="M123.9,40.1l0.4,0.3c-0.2,0.3-0.5,0.5-0.8,0.5c-0.3,0.1-0.6,0-0.9-0.2c-0.4-0.2-0.6-0.5-0.7-0.9
			c-0.1-0.4,0-0.8,0.3-1.3c0.2-0.3,0.4-0.5,0.6-0.7c0.2-0.2,0.5-0.2,0.7-0.2c0.3,0,0.5,0.1,0.8,0.2c0.3,0.2,0.5,0.4,0.6,0.6
			c0.1,0.3,0.1,0.5,0,0.9l-0.5-0.2c0.1-0.2,0.1-0.4,0-0.5c-0.1-0.2-0.2-0.3-0.3-0.4c-0.2-0.1-0.5-0.2-0.7-0.1
			c-0.2,0.1-0.5,0.3-0.7,0.7c-0.2,0.4-0.3,0.7-0.3,0.9s0.2,0.4,0.4,0.6c0.2,0.1,0.4,0.1,0.6,0.1C123.5,40.5,123.7,40.4,123.9,40.1z"
			/>
		<path class="st10" d="M124.5,40.7l0.5,0.2c-0.1,0.2-0.1,0.4,0,0.5c0.1,0.2,0.2,0.3,0.4,0.4c0.2,0.1,0.4,0.2,0.5,0.1
			c0.2,0,0.3-0.1,0.3-0.2c0.1-0.1,0.1-0.2,0-0.3c0-0.1-0.2-0.2-0.4-0.4c-0.3-0.3-0.5-0.5-0.6-0.6c-0.1-0.1-0.1-0.3-0.1-0.4
			c0-0.2,0-0.3,0.1-0.4c0.1-0.1,0.2-0.2,0.3-0.3c0.1-0.1,0.2-0.1,0.4-0.1c0.1,0,0.2,0,0.4,0s0.3,0.1,0.4,0.2
			c0.2,0.1,0.4,0.3,0.5,0.4s0.2,0.3,0.2,0.5c0,0.2,0,0.3-0.1,0.5l-0.5-0.2c0.1-0.2,0.1-0.3,0-0.4c-0.1-0.1-0.2-0.3-0.4-0.4
			c-0.2-0.1-0.4-0.2-0.5-0.2s-0.2,0.1-0.3,0.2c0,0.1,0,0.1,0,0.2c0,0.1,0,0.1,0.1,0.2c0,0,0.2,0.2,0.3,0.4c0.3,0.3,0.5,0.5,0.6,0.6
			c0.1,0.1,0.2,0.3,0.2,0.4s0,0.3-0.1,0.5c-0.1,0.2-0.2,0.3-0.4,0.4c-0.2,0.1-0.4,0.1-0.6,0.1c-0.2,0-0.4-0.1-0.6-0.2
			c-0.4-0.2-0.6-0.4-0.7-0.7S124.3,41,124.5,40.7z"/>
	</g>
</g>
<g>
	<polygon class="st0" points="321.9,134.6 321.9,47.9 246.8,4.6 171.7,47.9 171.7,134.6 246.8,177.9 	"/>
	<path class="st1" d="M320,127V55.5c0-4-2.1-7.7-5.6-9.8l-62.1-35.6c-3.5-2-7.8-2-11.2,0l-62.1,35.8c-3.5,2-5.6,5.7-5.6,9.8v71.5
		c0,4,2.1,7.7,5.6,9.8l61.9,35.8c3.5,2,7.8,2,11.2,0l62.2-35.9C317.8,134.8,320,131,320,127z"/>
	<rect x="190.9" y="30.4" class="st2" width="72.2" height="76.6"/>
	<text transform="matrix(1 0 0 1 190.8689 102.3789)" class="st4" style="font-family:'Lato-Regular'; font-size:97.563px;">tt</text>
	<g>
		<g>
			
				<rect x="290.5" y="92.1" transform="matrix(0.4639 -0.8859 0.8859 0.4639 68.8693 315.8776)" class="st5" width="9.8" height="17.8"/>
			<circle class="st5" cx="303" cy="105" r="4.8"/>
		</g>
		<g>
			
				<rect x="297.1" y="73.6" transform="matrix(0.2991 -0.9542 0.9542 0.2991 132.9315 346.0331)" class="st5" width="9.8" height="17.8"/>
			<circle class="st5" cx="310.3" cy="85" r="4.8"/>
		</g>
		<g>
			
				<rect x="280" y="105.5" transform="matrix(0.6287 -0.7776 0.7776 0.6287 15.0518 264.8071)" class="st6" width="9.8" height="22.2"/>
			<circle class="st1" cx="293.5" cy="123.6" r="4.8"/>
		</g>
		<g>
			
				<rect x="265.9" y="118.7" transform="matrix(0.7432 -0.6691 0.6691 0.7432 -16.1532 214.0505)" class="st7" width="9.8" height="18.7"/>
			<polygon class="st7" points="282.7,141.3 280.7,131.8 273.5,138.3 			"/>
		</g>
		<g>
			
				<rect x="232.6" y="136" transform="matrix(0.9586 -0.2848 0.2848 0.9586 -31.5643 73.6561)" class="st7" width="9.8" height="18.7"/>
			<polygon class="st7" points="242.6,162.3 244.8,152.9 235.6,155.6 			"/>
		</g>
		<g>
			
				<rect x="250.9" y="130" transform="matrix(0.8729 -0.488 0.488 0.8729 -36.8432 142.9064)" class="st8" width="9.8" height="24.3"/>
			<polygon class="st1" points="257.6,145.3 257.5,155.2 266,150.4 			"/>
		</g>
		<path class="st9" d="M294.9,67.4c-5.9,41.5-41.5,73.2-84.6,73.2"/>
		<g>
			<path class="st4" d="M303,66.5c-1,1.3-2.6,2.1-4,2.5c-1.6,0.4-3.1,0.4-4.7,0.1c-1.6-0.4-3-1-4.3-2s-2.3-2.2-2.7-3.9l0.1-0.3
				c2.2,1.7,4.7,3,7.4,3.5c2.7,0.7,5.5,0.5,8.2-0.3V66.5z"/>
		</g>
	</g>
	
		<text transform="matrix(0.8655 0.501 -0.501 0.8655 247.2162 15.0286)" class="st10" style="font-family:'ArialMT'; font-size:6.1071px;">Tidy Transcriptomics</text>
</g>
</svg>
