<?xml version="1.0" encoding="utf-8"?>
<!-- Generator: Adobe Illustrator 23.0.3, SVG Export Plug-In . SVG Version: 6.00 Build 0)  -->
<svg version="1.1" id="Layer_1" xmlns="http://www.w3.org/2000/svg" xmlns:xlink="http://www.w3.org/1999/xlink" x="0px" y="0px"
	 viewBox="0 0 120 143.7" style="enable-background:new 0 0 120 143.7;" xml:space="preserve">
<style type="text/css">
	.st0{display:none;}
	.st1{display:inline;}
	.st2{fill:none;stroke:#848484;stroke-width:4;stroke-linecap:round;stroke-miterlimit:10;}
	.st3{fill:#848484;stroke:#848484;stroke-width:4;stroke-linejoin:round;stroke-miterlimit:10;}
	.st4{fill:#B7B7B7;}
	.st5{fill:none;}
	.st6{fill:none;stroke:#FFFFFF;stroke-width:5;stroke-miterlimit:10;}
	.st7{fill:#FFFFFF;}
	.st8{fill:#F9F9F9;}
	.st9{fill:#848484;}
	.st10{font-family:'Lato-Regular';}
	.st11{font-size:75px;}
	.st12{fill:#79B6E3;}
	.st13{fill:#FFCB67;}
	.st14{fill:#F27067;}
	.st15{fill:#7BAE41;}
	.st16{fill:none;stroke:#848484;stroke-width:4;stroke-linejoin:round;stroke-miterlimit:10;}
	.st17{fill:#353535;}
	.st18{font-family:'MyriadPro-Regular';}
	.st19{font-size:4.6945px;}
</style>
<g class="st0">
	<g class="st1">
		<path class="st2" d="M26.2-77.9c3.1,3.3,11.6,3.5,15.1,0"/>
	</g>
	<g class="st1">
		<path class="st2" d="M50.8-77.9c3.1,3.3,11.6,3.5,15.2,0"/>
	</g>
</g>
<g>
	<polygon class="st3" points="117.7,-51.8 117.7,-118.4 60,-151.7 2.3,-118.4 2.3,-51.8 60,-18.5 	"/>
	<path class="st4" d="M116.3-57.6v-55c0-3.1-1.6-5.9-4.3-7.5l-47.6-27.5c-2.7-1.5-6-1.5-8.6,0L8-120.1c-2.7,1.5-4.3,4.4-4.3,7.5v55
		c0,3.1,1.6,5.9,4.3,7.5l47.6,27.5c2.7,1.5,6,1.5,8.6,0L112-50.1C114.6-51.7,116.3-54.5,116.3-57.6z"/>
	<rect x="17" y="-131.9" class="st5" width="55.5" height="58.9"/>
	<text transform="matrix(1 0 0 1 17.0101 -76.5677)" class="st7 st10 st11">tt</text>
	<g>
		<path class="st6" d="M97.7-112.8c0,36.3-29.4,65.7-65.7,65.7"/>
		<g>
			
				<rect x="94.1" y="-84.2" transform="matrix(0.4639 -0.8859 0.8859 0.4639 120.9379 45.2126)" class="st7" width="7.5" height="13.7"/>
			<circle class="st7" cx="103.6" cy="-74.3" r="3.7"/>
		</g>
		<g>
			
				<rect x="98.7" y="-98.7" transform="matrix(0.2991 -0.9542 0.9542 0.2991 159.491 33.4131)" class="st7" width="7.5" height="13.7"/>
			<circle class="st7" cx="108.8" cy="-89.9" r="3.7"/>
		</g>
		<g>
			
				<rect x="85.5" y="-74.2" transform="matrix(0.6287 -0.7776 0.7776 0.6287 84.1431 45.0336)" class="st7" width="7.5" height="17.1"/>
			<circle class="st4" cx="95.9" cy="-60.2" r="3.7"/>
		</g>
		<g>
			
				<rect x="74.7" y="-64" transform="matrix(0.7432 -0.6691 0.6691 0.7432 58.1468 37.9083)" class="st7" width="7.5" height="14.4"/>
			<polygon class="st7" points="87.6,-46.6 86.1,-53.9 80.5,-48.9 			"/>
		</g>
		<g>
			
				<rect x="49.1" y="-50.7" transform="matrix(0.9586 -0.2848 0.2848 0.9586 14.5853 13.2597)" class="st7" width="7.5" height="14.4"/>
			<polygon class="st7" points="56.8,-30.5 58.5,-37.7 51.4,-35.6 			"/>
		</g>
		<g>
			
				<rect x="63.2" y="-55.3" transform="matrix(0.8729 -0.488 0.488 0.8729 30.9342 26.8154)" class="st7" width="7.5" height="18.7"/>
			<polygon class="st4" points="68.4,-43.5 68.3,-36 74.8,-39.6 			"/>
		</g>
	</g>
	<text transform="matrix(0.8655 0.501 -0.501 0.8655 60.3255 -143.7181)" class="st17 st18 st19">Tidy Transcriptomics</text>
</g>
<g>
	<polygon class="st3" points="117.7,105.3 117.7,38.7 60,5.4 2.3,38.7 2.3,105.3 60,138.6 	"/>
	<path class="st8" d="M116.3,99.5v-55c0-3.1-1.6-5.9-4.3-7.5L64.3,9.6c-2.7-1.5-6-1.5-8.6,0L8,37.1c-2.7,1.5-4.3,4.4-4.3,7.5v55
		c0,3.1,1.6,5.9,4.3,7.5l47.6,27.5c2.7,1.5,6,1.5,8.6,0L112,107C114.6,105.5,116.3,102.6,116.3,99.5z"/>
	<rect x="17" y="25.2" class="st5" width="55.5" height="58.9"/>
	<text transform="matrix(1 0 0 1 17.0101 80.5692)" class="st9 st10 st11">tt</text>
	<g>
		<g>
			
				<rect x="93.7" y="72.7" transform="matrix(0.4639 -0.8859 0.8859 0.4639 -18.2976 128.9641)" class="st12" width="7.5" height="13.7"/>
			<circle class="st12" cx="103.2" cy="82.6" r="3.7"/>
		</g>
		<g>
			
				<rect x="98.7" y="58.4" transform="matrix(0.2991 -0.9542 0.9542 0.2991 9.5479 143.5493)" class="st12" width="7.5" height="13.7"/>
			<circle class="st12" cx="108.8" cy="67.2" r="3.7"/>
		</g>
		<g>
			
				<rect x="85.5" y="83" transform="matrix(0.6287 -0.7776 0.7776 0.6287 -38.0511 103.3748)" class="st13" width="7.5" height="17.1"/>
			<circle class="st8" cx="95.9" cy="96.9" r="3.7"/>
		</g>
		<g>
			
				<rect x="74.7" y="93.1" transform="matrix(0.7432 -0.6691 0.6691 0.7432 -46.9913 78.2635)" class="st14" width="7.5" height="14.4"/>
			<polygon class="st14" points="87.6,110.5 86.1,103.2 80.5,108.2 			"/>
		</g>
		<g>
			
				<rect x="49.1" y="106.4" transform="matrix(0.9586 -0.2848 0.2848 0.9586 -30.1667 19.767)" class="st14" width="7.5" height="14.4"/>
			<polygon class="st14" points="56.8,126.6 58.5,119.4 51.4,121.5 			"/>
		</g>
		<g>
			
				<rect x="63.2" y="101.8" transform="matrix(0.8729 -0.488 0.488 0.8729 -45.7448 46.7943)" class="st15" width="7.5" height="18.7"/>
			<polygon class="st8" points="68.3,113.6 68.2,121.2 74.8,117.5 			"/>
		</g>
		<path class="st16" d="M97,53.7C92.5,85.6,65.1,110,32,110"/>
		<g>
			<path class="st9" d="M103.2,53c-0.8,1-2,1.6-3.1,1.9c-1.2,0.3-2.4,0.3-3.6,0.1c-1.2-0.3-2.3-0.8-3.3-1.5c-1-0.7-1.8-1.7-2.1-3
				l0.1-0.2c1.7,1.3,3.6,2.3,5.7,2.7c2.1,0.5,4.2,0.4,6.3-0.2L103.2,53z"/>
		</g>
	</g>
	<text transform="matrix(0.8655 0.501 -0.501 0.8655 60.3255 13.4187)" class="st17 st18 st19">Tidy Transcriptomics</text>
</g>
</svg>
