<?xml version="1.0" encoding="utf-8"?>
<!-- Generator: Adobe Illustrator 24.1.1, SVG Export Plug-In . SVG Version: 6.00 Build 0)  -->
<svg version="1.1"
	 id="svg2" inkscape:version="0.91 r13725" sodipodi:docname="inkscape_template.svg" xmlns:cc="http://creativecommons.org/ns#" xmlns:dc="http://purl.org/dc/elements/1.1/" xmlns:inkscape="http://www.inkscape.org/namespaces/inkscape" xmlns:rdf="http://www.w3.org/1999/02/22-rdf-syntax-ns#" xmlns:sodipodi="http://sodipodi.sourceforge.net/DTD/sodipodi-0.dtd" xmlns:svg="http://www.w3.org/2000/svg"
	 xmlns="http://www.w3.org/2000/svg" xmlns:xlink="http://www.w3.org/1999/xlink" x="0px" y="0px" viewBox="0 0 155.7 182.5"
	 style="enable-background:new 0 0 155.7 182.5;" xml:space="preserve">
<style type="text/css">
	.st0{fill:#848484;stroke:#848484;stroke-width:5.2034;stroke-linejoin:round;stroke-miterlimit:10;}
	.st1{fill:#F9F9F9;}
	.st2{fill:none;}
	.st3{fill:#848484;}
	.st4{font-family:'Lato-Regular';}
	.st5{font-size:97.563px;}
	.st6{fill:#79B6E3;}
	.st7{fill:#FFCB67;}
	.st8{fill:#F27067;}
	.st9{fill:#7BAE41;}
	.st10{fill:none;stroke:#848484;stroke-width:5.2034;stroke-linejoin:round;stroke-miterlimit:10;}
	.st11{fill:#353535;}
	.st12{font-family:'ArialMT';}
	.st13{font-size:6.1071px;}
</style>
<sodipodi:namedview  bordercolor="#666666" borderopacity="1" gridtolerance="10" guidetolerance="10" id="namedview4" inkscape:current-layer="g10" inkscape:cx="50.566365" inkscape:cy="75.545513" inkscape:pageopacity="0" inkscape:pageshadow="2" inkscape:window-height="858" inkscape:window-maximized="0" inkscape:window-width="1291" inkscape:window-x="222" inkscape:window-y="48" inkscape:zoom="2.5863014" objecttolerance="10" pagecolor="#ffffff" showgrid="false">
	</sodipodi:namedview>
<g>
	<polygon class="st0" points="152.9,134.6 152.9,47.9 77.8,4.6 2.8,47.9 2.8,134.6 77.8,177.9 	"/>
	<path class="st1" d="M151.1,127V55.5c0-4-2.1-7.7-5.6-9.8L83.4,10.1c-3.5-2-7.8-2-11.2,0L10.2,45.8c-3.5,2-5.6,5.7-5.6,9.8v71.5
		c0,4,2.1,7.7,5.6,9.8l61.9,35.8c3.5,2,7.8,2,11.2,0l62.2-35.9C148.9,134.8,151.1,131,151.1,127z"/>
	<rect x="21.9" y="30.4" class="st2" width="72.2" height="76.6"/>
	<text transform="matrix(1 0 0 1 21.9264 102.3789)" class="st3 st4 st5">tt</text>
	<g>
		<g>
			
				<rect x="121.6" y="92.1" transform="matrix(0.4639 -0.8859 0.8859 0.4639 -21.7017 166.213)" class="st6" width="9.8" height="17.8"/>
			<circle class="st6" cx="134" cy="105" r="4.8"/>
		</g>
		<g>
			
				<rect x="128.2" y="73.6" transform="matrix(0.2991 -0.9542 0.9542 0.2991 14.5207 184.8248)" class="st6" width="9.8" height="17.8"/>
			<circle class="st6" cx="141.3" cy="85" r="4.8"/>
		</g>
		<g>
			
				<rect x="111" y="105.5" transform="matrix(0.6287 -0.7776 0.7776 0.6287 -47.6726 133.4325)" class="st7" width="9.8" height="22.2"/>
			<circle class="st1" cx="124.6" cy="123.6" r="4.8"/>
		</g>
		<g>
			
				<rect x="96.9" y="118.7" transform="matrix(0.7432 -0.6691 0.6691 0.7432 -59.5403 101.0134)" class="st8" width="9.8" height="18.7"/>
			<polygon class="st8" points="113.8,141.3 111.8,131.8 104.5,138.3 			"/>
		</g>
		<g>
			
				<rect x="63.7" y="136" transform="matrix(0.9586 -0.2848 0.2848 0.9586 -38.5606 25.5418)" class="st8" width="9.8" height="18.7"/>
			<polygon class="st8" points="73.7,162.3 75.9,152.9 66.7,155.6 			"/>
		</g>
		<g>
			<rect x="82" y="130" transform="matrix(0.8729 -0.488 0.488 0.8729 -58.3231 60.4665)" class="st9" width="9.8" height="24.3"/>
			<polygon class="st1" points="88.6,145.3 88.5,155.2 97.1,150.4 			"/>
		</g>
		<path class="st10" d="M126,67.4c-5.9,41.5-41.5,73.2-84.6,73.2"/>
		<g>
			<path class="st3" d="M134,66.5c-1,1.3-2.6,2.1-4,2.5c-1.6,0.4-3.1,0.4-4.7,0.1c-1.6-0.4-3-1-4.3-2s-2.3-2.2-2.7-3.9l0.1-0.3
				c2.2,1.7,4.7,3,7.4,3.5c2.7,0.7,5.5,0.5,8.2-0.3V66.5z"/>
		</g>
	</g>
	<text transform="matrix(0.8655 0.501 -0.501 0.8655 78.2737 15.0286)" class="st11 st12 st13">Tidy Transcriptomics</text>
</g>
</svg>
